<?xml version="1.0" encoding="UTF-8"?>
<svg xmlns="http://www.w3.org/2000/svg" viewBox="0 0 752.25 752.25" height="250" width="250">
  <defs>
    <style>
      .cls-1 {
        fill: #f2eefb;
        stroke: #d2c8ed;
        stroke-miterlimit: 10;
        stroke-width: 19px;
      }

      .cls-2 {
        fill: #d2c8ed;
      }

      .cls-3 {
        fill: #fffefe;
      }
    </style>
  </defs>
  <g id="Layer_3" data-name="Layer 3">
    <circle class="cls-1" cx="376.12" cy="376.12" r="366.62"/>
  </g>
  <g id="Layer_2" data-name="Layer 2">
    <path class="cls-2" d="m556.29,172.49c6.77-.52,12.62,1.89,17.56,7.23,9.25,10,18.46,20.04,27.63,30.12,3,3.31,5.1,6.22,6.31,8.73.97,3.91.98,7.81.04,11.71-.69,1.1-1.38,2.2-2.07,3.3-.68,1.09-1.43,2.13-2.26,3.14-106.76,131.13-176.68,216.88-209.77,257.25-34.84,42.5-55.82,68.17-62.94,77.02-.39.35-.81.28-1.25-.21-24.42-27.29-59.43-65.79-105.04-115.5-4.27-4.68-6.86-7.49-7.77-8.44-4.51-4.66-6.5-10.26-5.98-16.81.22-2.24.73-4.07,1.54-5.5,1.28-2.27,2.99-4.63,5.12-7.08,2.17-2.48,3.27-3.74,3.3-3.78,9.11-10.89,18.2-21.79,27.27-32.7,4.35-5.25,10.12-7.66,17.31-7.23,3.38.09,6.55.95,9.5,2.58,2.38,1.77,5.19,4.45,8.44,8.02,15.31,16.87,30.63,33.73,45.97,50.57.16.18.44.19.62.03.01-.01.03-.03.04-.04l61.47-74.62c49.46-59.86,98.93-119.71,148.4-179.56,4.39-5.31,9.91-8.06,16.56-8.23Z"/>
  </g>
  <g id="Layer_2_copy" data-name="Layer 2 copy">
    <path class="cls-3" d="m553.29,155.49c6.77-.52,12.62,1.89,17.56,7.23,9.25,10,18.46,20.04,27.63,30.12,3,3.31,5.1,6.22,6.31,8.73.97,3.91.98,7.81.04,11.71-.69,1.1-1.38,2.2-2.07,3.3-.68,1.09-1.43,2.13-2.26,3.14-106.76,131.13-176.68,216.88-209.77,257.25-34.84,42.5-55.82,68.17-62.94,77.02-.39.35-.81.28-1.25-.21-24.42-27.29-59.43-65.79-105.04-115.5-4.27-4.68-6.86-7.49-7.77-8.44-4.51-4.66-6.5-10.26-5.98-16.81.22-2.24.73-4.07,1.54-5.5,1.28-2.27,2.99-4.63,5.12-7.08,2.17-2.48,3.27-3.74,3.3-3.78,9.11-10.89,18.2-21.79,27.27-32.7,4.35-5.25,10.12-7.66,17.31-7.23,3.38.09,6.55.95,9.5,2.58,2.38,1.77,5.19,4.45,8.44,8.02,15.31,16.87,30.63,33.73,45.97,50.57.16.18.44.19.62.03.01-.01.03-.03.04-.04l61.47-74.62c49.46-59.86,98.93-119.71,148.4-179.56,4.39-5.31,9.91-8.06,16.56-8.23Z"/>
  </g>
</svg>